<?xml version="1.0" encoding="UTF-8"?>
<svg id="Layer_1" data-name="Layer 1" xmlns="http://www.w3.org/2000/svg" viewBox="0 0 15320.77 3730.1">
  <defs>
    <style>
      .cls-1 {
        fill: #fff;
      }

      .cls-2, .cls-3 {
        fill: #ff4500;
      }

      .cls-3 {
        stroke: #000;
        stroke-miterlimit: 10;
        stroke-width: 60px;
      }
    </style>
  </defs>
  <path class="cls-1" d="M7973.93,2223.3c-79.2,79.1-206.6,94.3-313.7,94.3s-234.5-15.2-313.6-94.3m869.3-1251.9l-400.8-94.3-155.6,475,155.7-475m722.3,126.7c0,87.3-70.7,158-157.9,158.1-87.3,0-158-70.7-158.1-157.9v-.1c2-87.3,74.3-156.4,161.5-154.5,84.5,1.8,152.6,69.9,154.5,154.4h0Zm26.2,946.7c0,327.2-406.4,592.5-907.7,592.5s-907.7-265.2-907.7-592.5,406.4-592.5,907.7-592.5,907.7,265.3,907.7,592.5h0Zm-1803.6-92.1c-72.9-32-119.9-104-119.9-183.6-.1-110.7,89.6-200.4,200.3-200.5,59.2,0,115.5,26.1,153.6,71.5m1329.2,4.1c69-86.5,195.1-100.8,281.6-31.7,47.7,38,75.5,95.7,75.5,156.6,0,82.7-50.8,157-127.9,186.9"/>
  <path d="M7655.93,2582.6c-522.4,0-947.3-283.5-947.3-632.1,0-24.1,2-47.9,6-71.3-70.9-43.8-114-121.1-114-204.4,.2-132.5,107.5-239.8,240-240,59.1,0,115.5,21.6,159.1,60.3,164.3-105.5,385.3-171.8,629.1-176.4l160.1-488.5,34.9,8.2,.8,.2,373.1,87.8c31.1-72.8,102.6-120.1,181.8-120.2,109.1,.1,197.5,88.5,197.6,197.6-.1,109.1-88.5,197.5-197.6,197.6-109-.1-197.4-88.4-197.6-197.4l-340.4-80.2-129.6,395.6c234.9,9.1,447.1,75.7,605.5,178.9,44.2-41,102.4-63.7,162.7-63.6,132.5,.2,239.9,107.5,240,240,.4,86.7-46.3,166.8-122,209.1,3.4,21.9,5.2,44.1,5.2,66.6-.1,348.7-425.1,632.2-947.4,632.2h0Zm-860.2-707c-5.3,24.6-7.9,49.7-7.9,74.9,0,304.9,389.4,552.9,868.1,552.9s868.1-248,868.1-552.9c0-24.2-2.5-48.1-7.2-71.6-2.6-5.4-3.9-11.3-3.9-17.2-26.5-104-98.8-198.5-203.1-274.6-6.6-2.4-12.5-6.6-17-12-158.7-109.1-385.4-177.5-636.8-177.5s-473.7,67-632.1,174.3c-4.3,4.9-9.8,8.7-15.9,11-106.6,76.2-180.8,171.2-208.3,276.2-.1,5.2-1.2,10.4-3.3,15.2-.3,.5-.5,.9-.7,1.3h0Zm1587.8-329.4c91.8,73.5,159.2,160.9,193.7,256.9,40.2-30.3,63.8-77.9,63.6-128.3-.1-88.8-72-160.7-160.8-160.8-34.8,0-68.7,11.3-96.5,32.2h0Zm-1543-32.2c-88.8,.1-160.7,72.1-160.8,160.8,0,48,21.4,92.7,56.9,122.8,35.6-95.2,103.7-182,195.9-254.7-27-18.8-59.1-28.9-92-28.9Zm1538.9-628.6c-65.3,0-118.4,53.1-118.4,118.4s53.1,118.4,118.4,118.4,118.4-53.1,118.4-118.4-53.1-118.4-118.4-118.4h0Zm-719.2,1471.8c-158.6,0-270.3-34.6-341.6-105.9-15.5-15.5-15.5-40.6,0-56,15.5-15.5,40.6-15.5,56,0,55.6,55.6,149,82.7,285.6,82.7s230-27.1,285.7-82.7c15.5-15.5,40.5-15.4,56,0,15.5,15.5,15.4,40.5,0,56h0c-71.4,71.2-183.1,105.9-341.7,105.9h0Z"/>
  <path class="cls-2" d="M7981.43,1687.1c-80.7,0-148.5,67.6-148.5,148.3s67.8,146,148.5,146,146-65.4,146-146-65.4-148.3-146-148.3h0Zm-639.9,0c-80.6,0-148.3,67.7-148.3,148.3s67.6,146,148.3,146,146-65.4,146-146-65.4-148.3-146-148.3h0Z"/>
  <g>
    <rect class="cls-3" x="6862.03" y="2206" width="1605.5" height="717.9"/>
    <g>
      <path class="cls-1" d="M7365.13,2409.6c79.5,0,125.1,39.1,125.1,108.3,0,72.7-45.7,114.9-125.1,114.9h-56.4v87.4h-79v-310.6h135.4Zm-56.4,161.1h52.4c34.6,0,54.6-17.3,54.6-50.1s-19.9-48.8-54.6-48.8h-52.4v98.9h0Z"/>
      <path class="cls-1" d="M7676.23,2409.6c97.6,0,165,63,165,155.3s-68.4,155.3-168.2,155.3h-130.4v-310.6h133.6Zm-54.8,247.6h56.4c48.3,0,82.9-37.3,82.9-91.8s-36.4-92.8-86.6-92.8h-52.8v184.6h.1Z"/>
      <path class="cls-1" d="M7972.93,2471.7v71.9h139.4v62.2h-139.3v114.4h-79v-310.6h230.3v62.2h-151.4v-.1h0Z"/>
    </g>
  </g>
</svg>